<svg width="20" height="20" viewBox="0 0 20 20" fill="none" xmlns="http://www.w3.org/2000/svg">
<path fill-rule="evenodd" clip-rule="evenodd" d="M4.375 7.5C4.02982 7.5 3.75 7.77982 3.75 8.125V18.125C3.75 18.4702 4.02982 18.75 4.375 18.75H15.625C15.9702 18.75 16.25 18.4702 16.25 18.125V8.125C16.25 7.77982 15.9702 7.5 15.625 7.5H13.125C12.7798 7.5 12.5 7.22018 12.5 6.875C12.5 6.52982 12.7798 6.25 13.125 6.25H15.625C16.6605 6.25 17.5 7.08947 17.5 8.125V18.125C17.5 19.1605 16.6605 20 15.625 20H4.375C3.33947 20 2.5 19.1605 2.5 18.125V8.125C2.5 7.08947 3.33947 6.25 4.375 6.25H6.875C7.22018 6.25 7.5 6.52982 7.5 6.875C7.5 7.22018 7.22018 7.5 6.875 7.5H4.375Z" fill="#2D2D2D"/>
<path fill-rule="evenodd" clip-rule="evenodd" d="M9.55806 14.8169C9.80214 15.061 10.1979 15.061 10.4419 14.8169L14.1919 11.0669C14.436 10.8229 14.436 10.4271 14.1919 10.1831C13.9479 9.93898 13.5521 9.93898 13.3081 10.1831L10.625 12.8661V1.875C10.625 1.52982 10.3452 1.25 10 1.25C9.65482 1.25 9.375 1.52982 9.375 1.875V12.8661L6.69194 10.1831C6.44786 9.93898 6.05214 9.93898 5.80806 10.1831C5.56398 10.4271 5.56398 10.8229 5.80806 11.0669L9.55806 14.8169Z" fill="#2D2D2D"/>
</svg>
